<mxfile host="app.diagrams.net" modified="2023-12-14T14:51:38.599Z" agent="Mozilla/5.0 (Windows NT 10.0; Win64; x64) AppleWebKit/537.36 (KHTML, like Gecko) Chrome/120.0.0.0 Safari/537.36" etag="tRNq-Sm8ORr23xIG_yLc" version="22.1.8" type="device">
  <diagram name="Page-1" id="2YBvvXClWsGukQMizWep">
    <mxGraphModel dx="2284" dy="746" grid="1" gridSize="10" guides="1" tooltips="1" connect="1" arrows="1" fold="1" page="1" pageScale="1" pageWidth="850" pageHeight="1100" math="0" shadow="0">
      <root>
        <mxCell id="0" />
        <mxCell id="1" parent="0" />
        <mxCell id="aM9ryv3xv72pqoxQDRHE-1" value="CKB platform" style="shape=umlLifeline;perimeter=lifelinePerimeter;whiteSpace=wrap;html=1;container=0;dropTarget=0;collapsible=0;recursiveResize=0;outlineConnect=0;portConstraint=eastwest;newEdgeStyle={&quot;edgeStyle&quot;:&quot;elbowEdgeStyle&quot;,&quot;elbow&quot;:&quot;vertical&quot;,&quot;curved&quot;:0,&quot;rounded&quot;:0};" parent="1" vertex="1">
          <mxGeometry x="80" y="40" width="100" height="380" as="geometry" />
        </mxCell>
        <mxCell id="aM9ryv3xv72pqoxQDRHE-2" value="" style="html=1;points=[];perimeter=orthogonalPerimeter;outlineConnect=0;targetShapes=umlLifeline;portConstraint=eastwest;newEdgeStyle={&quot;edgeStyle&quot;:&quot;elbowEdgeStyle&quot;,&quot;elbow&quot;:&quot;vertical&quot;,&quot;curved&quot;:0,&quot;rounded&quot;:0};" parent="aM9ryv3xv72pqoxQDRHE-1" vertex="1">
          <mxGeometry x="45" y="70" width="10" height="30" as="geometry" />
        </mxCell>
        <mxCell id="3rUVXAohg5rPnSxasNTX-16" value="" style="html=1;points=[];perimeter=orthogonalPerimeter;outlineConnect=0;targetShapes=umlLifeline;portConstraint=eastwest;newEdgeStyle={&quot;edgeStyle&quot;:&quot;elbowEdgeStyle&quot;,&quot;elbow&quot;:&quot;vertical&quot;,&quot;curved&quot;:0,&quot;rounded&quot;:0};" parent="aM9ryv3xv72pqoxQDRHE-1" vertex="1">
          <mxGeometry x="45" y="160" width="10" height="210" as="geometry" />
        </mxCell>
        <mxCell id="3rUVXAohg5rPnSxasNTX-24" value="" style="html=1;points=[[0,0,0,0,5],[0,1,0,0,-5],[1,0,0,0,5],[1,1,0,0,-5]];perimeter=orthogonalPerimeter;outlineConnect=0;targetShapes=umlLifeline;portConstraint=eastwest;newEdgeStyle={&quot;curved&quot;:0,&quot;rounded&quot;:0};" parent="aM9ryv3xv72pqoxQDRHE-1" vertex="1">
          <mxGeometry x="50" y="180" width="10" height="20" as="geometry" />
        </mxCell>
        <mxCell id="3rUVXAohg5rPnSxasNTX-25" value="&lt;font style=&quot;font-size: 9px;&quot;&gt;5 : validateSignUpData()&lt;/font&gt;" style="html=1;align=left;spacingLeft=2;endArrow=block;rounded=0;edgeStyle=orthogonalEdgeStyle;curved=0;rounded=0;" parent="aM9ryv3xv72pqoxQDRHE-1" source="3rUVXAohg5rPnSxasNTX-16" target="3rUVXAohg5rPnSxasNTX-24" edge="1">
          <mxGeometry relative="1" as="geometry">
            <mxPoint x="55" y="150" as="sourcePoint" />
            <Array as="points">
              <mxPoint x="80" y="170" />
              <mxPoint x="80" y="180" />
            </Array>
          </mxGeometry>
        </mxCell>
        <mxCell id="3rUVXAohg5rPnSxasNTX-1" value="&lt;font style=&quot;font-size: 9px;&quot;&gt;Unregistered Student&lt;/font&gt;" style="shape=umlActor;verticalLabelPosition=bottom;verticalAlign=top;html=1;outlineConnect=0;" parent="1" vertex="1">
          <mxGeometry x="-100" y="40" width="20" height="40" as="geometry" />
        </mxCell>
        <mxCell id="3rUVXAohg5rPnSxasNTX-3" value="" style="endArrow=none;dashed=1;html=1;rounded=0;" parent="1" source="3rUVXAohg5rPnSxasNTX-10" edge="1">
          <mxGeometry width="50" height="50" relative="1" as="geometry">
            <mxPoint x="-90" y="350" as="sourcePoint" />
            <mxPoint x="-90" y="100" as="targetPoint" />
          </mxGeometry>
        </mxCell>
        <mxCell id="3rUVXAohg5rPnSxasNTX-11" value="" style="endArrow=none;dashed=1;html=1;rounded=0;exitX=0.142;exitY=1.005;exitDx=0;exitDy=0;exitPerimeter=0;" parent="1" source="3rUVXAohg5rPnSxasNTX-27" target="3rUVXAohg5rPnSxasNTX-10" edge="1">
          <mxGeometry width="50" height="50" relative="1" as="geometry">
            <mxPoint x="-90" y="390" as="sourcePoint" />
            <mxPoint x="-90" y="370" as="targetPoint" />
          </mxGeometry>
        </mxCell>
        <mxCell id="3rUVXAohg5rPnSxasNTX-10" value="" style="html=1;points=[];perimeter=orthogonalPerimeter;outlineConnect=0;targetShapes=umlLifeline;portConstraint=eastwest;newEdgeStyle={&quot;edgeStyle&quot;:&quot;elbowEdgeStyle&quot;,&quot;elbow&quot;:&quot;vertical&quot;,&quot;curved&quot;:0,&quot;rounded&quot;:0};" parent="1" vertex="1">
          <mxGeometry x="-95" y="110" width="10" height="300" as="geometry" />
        </mxCell>
        <mxCell id="3rUVXAohg5rPnSxasNTX-12" value="&lt;font style=&quot;font-size: 9px;&quot;&gt;1 : click(signUpButton)&lt;/font&gt;" style="html=1;verticalAlign=bottom;endArrow=block;edgeStyle=elbowEdgeStyle;elbow=vertical;curved=0;rounded=0;" parent="1" source="3rUVXAohg5rPnSxasNTX-10" target="aM9ryv3xv72pqoxQDRHE-2" edge="1">
          <mxGeometry relative="1" as="geometry">
            <mxPoint x="-50" y="110" as="sourcePoint" />
            <Array as="points">
              <mxPoint x="30" y="110" />
            </Array>
            <mxPoint x="115" y="110" as="targetPoint" />
          </mxGeometry>
        </mxCell>
        <mxCell id="3rUVXAohg5rPnSxasNTX-8" value="&lt;font style=&quot;font-size: 9px;&quot;&gt;2 : showPage(signUpPage)&lt;/font&gt;" style="html=1;verticalAlign=bottom;endArrow=openThin;dashed=1;endSize=8;edgeStyle=elbowEdgeStyle;elbow=vertical;curved=0;rounded=0;endFill=0;" parent="1" source="aM9ryv3xv72pqoxQDRHE-2" target="3rUVXAohg5rPnSxasNTX-10" edge="1">
          <mxGeometry relative="1" as="geometry">
            <mxPoint x="-50" y="140" as="targetPoint" />
            <Array as="points">
              <mxPoint x="5" y="140" />
            </Array>
            <mxPoint x="80" y="140" as="sourcePoint" />
          </mxGeometry>
        </mxCell>
        <mxCell id="3rUVXAohg5rPnSxasNTX-18" value="" style="html=1;points=[[0,0,0,0,5],[0,1,0,0,-5],[1,0,0,0,5],[1,1,0,0,-5]];perimeter=orthogonalPerimeter;outlineConnect=0;targetShapes=umlLifeline;portConstraint=eastwest;newEdgeStyle={&quot;curved&quot;:0,&quot;rounded&quot;:0};" parent="1" vertex="1">
          <mxGeometry x="-90" y="170" width="10" height="20" as="geometry" />
        </mxCell>
        <mxCell id="3rUVXAohg5rPnSxasNTX-20" value="&lt;font style=&quot;font-size: 9px;&quot;&gt;4 : send(signUpCredentials)&lt;/font&gt;" style="html=1;verticalAlign=bottom;endArrow=block;edgeStyle=elbowEdgeStyle;elbow=vertical;curved=0;rounded=0;" parent="1" source="3rUVXAohg5rPnSxasNTX-10" target="3rUVXAohg5rPnSxasNTX-16" edge="1">
          <mxGeometry relative="1" as="geometry">
            <mxPoint x="-80" y="190" as="sourcePoint" />
            <Array as="points">
              <mxPoint x="30" y="200" />
            </Array>
            <mxPoint x="90" y="200" as="targetPoint" />
          </mxGeometry>
        </mxCell>
        <mxCell id="3rUVXAohg5rPnSxasNTX-26" value="&lt;font style=&quot;font-size: 9px;&quot;&gt;6 : displayOutcome(confirmation)&lt;/font&gt;" style="html=1;verticalAlign=bottom;endArrow=openThin;dashed=1;endSize=8;edgeStyle=elbowEdgeStyle;elbow=vertical;curved=0;rounded=0;endFill=0;" parent="1" source="3rUVXAohg5rPnSxasNTX-16" edge="1">
          <mxGeometry relative="1" as="geometry">
            <mxPoint x="-85" y="280" as="targetPoint" />
            <Array as="points">
              <mxPoint x="10" y="280" />
            </Array>
            <mxPoint x="85" y="280" as="sourcePoint" />
          </mxGeometry>
        </mxCell>
        <mxCell id="3rUVXAohg5rPnSxasNTX-27" value="&lt;b&gt;alt &lt;/b&gt;outcome == true" style="shape=umlFrame;whiteSpace=wrap;html=1;pointerEvents=0;width=120;height=15;fontSize=11;" parent="1" vertex="1">
          <mxGeometry x="-160" y="250" width="450" height="170" as="geometry" />
        </mxCell>
        <mxCell id="3rUVXAohg5rPnSxasNTX-28" value="[then]" style="text;html=1;strokeColor=none;fillColor=none;align=center;verticalAlign=middle;whiteSpace=wrap;rounded=0;fontSize=10;" parent="1" vertex="1">
          <mxGeometry x="-150" y="270" width="35" height="10" as="geometry" />
        </mxCell>
        <mxCell id="3rUVXAohg5rPnSxasNTX-31" value="Email provider" style="shape=umlLifeline;perimeter=lifelinePerimeter;whiteSpace=wrap;html=1;container=0;dropTarget=0;collapsible=0;recursiveResize=0;outlineConnect=0;portConstraint=eastwest;newEdgeStyle={&quot;edgeStyle&quot;:&quot;elbowEdgeStyle&quot;,&quot;elbow&quot;:&quot;vertical&quot;,&quot;curved&quot;:0,&quot;rounded&quot;:0};" parent="1" vertex="1">
          <mxGeometry x="220" y="40" width="100" height="380" as="geometry" />
        </mxCell>
        <mxCell id="3rUVXAohg5rPnSxasNTX-37" value="" style="html=1;points=[];perimeter=orthogonalPerimeter;outlineConnect=0;targetShapes=umlLifeline;portConstraint=eastwest;newEdgeStyle={&quot;edgeStyle&quot;:&quot;elbowEdgeStyle&quot;,&quot;elbow&quot;:&quot;vertical&quot;,&quot;curved&quot;:0,&quot;rounded&quot;:0};" parent="3rUVXAohg5rPnSxasNTX-31" vertex="1">
          <mxGeometry x="45" y="250" width="10" height="20" as="geometry" />
        </mxCell>
        <mxCell id="3rUVXAohg5rPnSxasNTX-36" value="&lt;font style=&quot;font-size: 9px;&quot;&gt;7 : sendEmail(confirmEmail)&lt;/font&gt;" style="html=1;verticalAlign=bottom;endArrow=block;edgeStyle=elbowEdgeStyle;elbow=vertical;curved=0;rounded=0;" parent="1" target="3rUVXAohg5rPnSxasNTX-37" edge="1">
          <mxGeometry relative="1" as="geometry">
            <mxPoint x="135" y="290" as="sourcePoint" />
            <Array as="points">
              <mxPoint x="255" y="290" />
            </Array>
            <mxPoint x="315" y="290" as="targetPoint" />
          </mxGeometry>
        </mxCell>
        <mxCell id="3rUVXAohg5rPnSxasNTX-38" value="&lt;font style=&quot;font-size: 9px;&quot;&gt;9 : receiveConfirmation&lt;/font&gt;" style="html=1;verticalAlign=bottom;endArrow=openThin;dashed=1;endSize=8;edgeStyle=elbowEdgeStyle;elbow=vertical;curved=0;rounded=0;endFill=0;" parent="1" source="3rUVXAohg5rPnSxasNTX-37" edge="1">
          <mxGeometry relative="1" as="geometry">
            <mxPoint x="135" y="310" as="targetPoint" />
            <Array as="points">
              <mxPoint x="230" y="310" />
            </Array>
            <mxPoint x="310" y="310" as="sourcePoint" />
          </mxGeometry>
        </mxCell>
        <mxCell id="3rUVXAohg5rPnSxasNTX-39" value="" style="endArrow=none;dashed=1;html=1;rounded=0;exitX=0.001;exitY=0.409;exitDx=0;exitDy=0;exitPerimeter=0;strokeWidth=2;" parent="1" edge="1">
          <mxGeometry width="50" height="50" relative="1" as="geometry">
            <mxPoint x="-160" y="340.75" as="sourcePoint" />
            <mxPoint x="290" y="340" as="targetPoint" />
          </mxGeometry>
        </mxCell>
        <mxCell id="3rUVXAohg5rPnSxasNTX-41" value="[else]" style="text;html=1;strokeColor=none;fillColor=none;align=center;verticalAlign=middle;whiteSpace=wrap;rounded=0;fontSize=10;" parent="1" vertex="1">
          <mxGeometry x="-150" y="350" width="35" height="10" as="geometry" />
        </mxCell>
        <mxCell id="3rUVXAohg5rPnSxasNTX-43" value="&lt;font style=&quot;font-size: 9px;&quot;&gt;11 : displayOutcome(error)&lt;/font&gt;" style="html=1;verticalAlign=bottom;endArrow=openThin;dashed=1;endSize=8;edgeStyle=elbowEdgeStyle;elbow=vertical;curved=0;rounded=0;endFill=0;" parent="1" source="3rUVXAohg5rPnSxasNTX-16" edge="1">
          <mxGeometry relative="1" as="geometry">
            <mxPoint x="-85" y="360" as="targetPoint" />
            <Array as="points">
              <mxPoint x="10" y="360" />
            </Array>
            <mxPoint x="85" y="360" as="sourcePoint" />
          </mxGeometry>
        </mxCell>
        <mxCell id="3rUVXAohg5rPnSxasNTX-45" value="&lt;font style=&quot;font-size: 9px;&quot;&gt;3 : fillSignUpForm(data)&lt;/font&gt;" style="html=1;align=left;spacingLeft=2;endArrow=block;rounded=0;edgeStyle=orthogonalEdgeStyle;curved=0;rounded=0;" parent="1" source="3rUVXAohg5rPnSxasNTX-10" target="3rUVXAohg5rPnSxasNTX-18" edge="1">
          <mxGeometry relative="1" as="geometry">
            <mxPoint x="-80" y="160" as="sourcePoint" />
            <Array as="points">
              <mxPoint x="-60" y="160" />
              <mxPoint x="-60" y="170" />
            </Array>
            <mxPoint x="-75" y="190" as="targetPoint" />
          </mxGeometry>
        </mxCell>
        <mxCell id="3rUVXAohg5rPnSxasNTX-46" value="&lt;p style=&quot;line-height: 120%;&quot;&gt;&lt;font style=&quot;font-size: 10px;&quot;&gt;&lt;b&gt;loop&lt;/b&gt;: outcome == false&lt;/font&gt;&lt;/p&gt;" style="shape=umlFrame;whiteSpace=wrap;html=1;pointerEvents=0;width=70;height=40;verticalAlign=middle;horizontal=1;labelPosition=center;verticalLabelPosition=middle;align=center;" parent="1" vertex="1">
          <mxGeometry x="-180" y="150" width="480" height="280" as="geometry" />
        </mxCell>
        <mxCell id="Yp0WRVvatMSxccAeCnwi-1" value="&lt;font style=&quot;font-size: 9px;&quot;&gt;8 : click(continueButton)&lt;/font&gt;" style="html=1;verticalAlign=bottom;endArrow=block;edgeStyle=elbowEdgeStyle;elbow=vertical;curved=0;rounded=0;" parent="1" source="3rUVXAohg5rPnSxasNTX-10" target="3rUVXAohg5rPnSxasNTX-16" edge="1">
          <mxGeometry relative="1" as="geometry">
            <mxPoint x="-85" y="300" as="sourcePoint" />
            <Array as="points">
              <mxPoint x="30" y="300" />
            </Array>
            <mxPoint x="105" y="300" as="targetPoint" />
          </mxGeometry>
        </mxCell>
        <mxCell id="Yp0WRVvatMSxccAeCnwi-2" value="&lt;font style=&quot;font-size: 9px;&quot;&gt;10 : showPage(homepage)&lt;/font&gt;" style="html=1;verticalAlign=bottom;endArrow=openThin;dashed=1;endSize=8;edgeStyle=elbowEdgeStyle;elbow=vertical;curved=0;rounded=0;endFill=0;" parent="1" source="3rUVXAohg5rPnSxasNTX-16" target="3rUVXAohg5rPnSxasNTX-10" edge="1">
          <mxGeometry relative="1" as="geometry">
            <mxPoint x="-85" y="320" as="targetPoint" />
            <Array as="points">
              <mxPoint x="10" y="320" />
            </Array>
            <mxPoint x="105" y="320" as="sourcePoint" />
          </mxGeometry>
        </mxCell>
        <mxCell id="Yp0WRVvatMSxccAeCnwi-3" value="&lt;font style=&quot;font-size: 9px;&quot;&gt;12 : click(continueButton)&lt;/font&gt;" style="html=1;verticalAlign=bottom;endArrow=block;edgeStyle=elbowEdgeStyle;elbow=vertical;curved=0;rounded=0;" parent="1" source="3rUVXAohg5rPnSxasNTX-10" target="3rUVXAohg5rPnSxasNTX-16" edge="1">
          <mxGeometry x="-0.0016" relative="1" as="geometry">
            <mxPoint x="-85" y="380" as="sourcePoint" />
            <Array as="points">
              <mxPoint x="30" y="380" />
            </Array>
            <mxPoint x="105" y="380" as="targetPoint" />
            <mxPoint as="offset" />
          </mxGeometry>
        </mxCell>
        <mxCell id="Yp0WRVvatMSxccAeCnwi-4" value="&lt;font style=&quot;font-size: 9px;&quot;&gt;13 : showPage(signUpPage)&lt;/font&gt;" style="html=1;verticalAlign=bottom;endArrow=openThin;dashed=1;endSize=8;edgeStyle=elbowEdgeStyle;elbow=vertical;curved=0;rounded=0;endFill=0;" parent="1" source="3rUVXAohg5rPnSxasNTX-16" target="3rUVXAohg5rPnSxasNTX-10" edge="1">
          <mxGeometry relative="1" as="geometry">
            <mxPoint x="-85" y="400" as="targetPoint" />
            <Array as="points">
              <mxPoint x="10" y="400" />
            </Array>
            <mxPoint x="105" y="400" as="sourcePoint" />
          </mxGeometry>
        </mxCell>
      </root>
    </mxGraphModel>
  </diagram>
</mxfile>
